<svg width="9" height="9" viewBox="0 0 9 9" fill="none" xmlns="http://www.w3.org/2000/svg">
<path d="M6.54371 1.19814H8.09794C8.201 1.19814 8.29983 1.23907 8.3727 1.31194C8.44556 1.38481 8.4865 1.48364 8.4865 1.5867V7.80363C8.4865 7.90668 8.44556 8.00552 8.3727 8.07838C8.29983 8.15125 8.201 8.19219 8.09794 8.19219H1.10389C1.00084 8.19219 0.902007 8.15125 0.829138 8.07838C0.756269 8.00552 0.715332 7.90668 0.715332 7.80363V1.5867C0.715332 1.48364 0.756269 1.38481 0.829138 1.31194C0.902007 1.23907 1.00084 1.19814 1.10389 1.19814H2.65812V0.421021H3.43524V1.19814H5.76659V0.421021H6.54371V1.19814ZM5.76659 1.97525H3.43524V2.75237H2.65812V1.97525H1.49245V3.52949H7.70938V1.97525H6.54371V2.75237H5.76659V1.97525ZM7.70938 4.30661H1.49245V7.41507H7.70938V4.30661Z" fill="#FF553E"/>
</svg>
