<svg width="59" height="72" viewBox="0 0 59 72" fill="none" xmlns="http://www.w3.org/2000/svg">
<path opacity="0.2" d="M3.93705 0.827976C4.20278 0.343819 4.81068 0.166746 5.29484 0.432472C5.77899 0.698198 5.95607 1.3061 5.69034 1.79026L3.93705 0.827976ZM21.2493 36.2841L21.4689 35.3085L21.2493 36.2841ZM57.9096 62.5238C58.3331 62.8783 58.3891 63.509 58.0346 63.9325L52.2577 70.8338C51.9032 71.2573 51.2725 71.3132 50.849 70.9587C50.4255 70.6042 50.3696 69.9735 50.7241 69.55L55.8591 63.4155L49.7246 58.2806C49.3011 57.9261 49.2451 57.2954 49.5996 56.8719C49.9541 56.4484 50.5848 56.3925 51.0083 56.747L57.9096 62.5238ZM5.69034 1.79026C3.21227 6.30534 1.0828 13.3642 2.58283 19.9106C3.32744 23.1602 4.96758 26.2975 7.93196 28.9717C10.9035 31.6525 15.2516 33.9087 21.4689 35.3085L21.0296 37.2597C14.5619 35.8035 9.87653 33.4196 6.59228 30.4567C3.30087 27.4874 1.46292 23.9776 0.633354 20.3573C-1.01497 13.1638 1.32279 5.59119 3.93705 0.827976L5.69034 1.79026ZM21.4689 35.3085C29.2254 37.0549 34.6735 36.0424 38.2052 33.8575C41.7313 31.6761 43.4725 28.2526 43.708 24.8857C43.9449 21.4965 42.6563 18.2373 40.2069 16.3478C37.8 14.4912 34.0763 13.8114 29.11 15.9571L28.3168 14.1211C33.7931 11.7551 38.3217 12.3677 41.4284 14.7642C44.4926 17.1279 45.9787 21.0827 45.7031 25.0252C45.4259 28.9899 43.3671 33.0158 39.2574 35.5583C35.1532 38.0974 29.1294 39.0834 21.0296 37.2597L21.4689 35.3085ZM29.11 15.9571C24.2299 18.0654 21.4178 22.1036 20.4525 27.012C19.4816 31.9489 20.3872 37.7687 23.0139 43.2752C28.2596 54.2721 40.2548 63.7956 57.1794 62.2945L57.3561 64.2867C39.4881 65.8715 26.7634 55.7809 21.2088 44.1363C18.4353 38.3221 17.4206 32.0644 18.4901 26.626C19.5652 21.1592 22.7541 16.5243 28.3168 14.1211L29.11 15.9571Z" fill="#FF553E"/>
</svg>
