<svg width="9" height="8" viewBox="0 0 9 8" fill="none" xmlns="http://www.w3.org/2000/svg">
<path d="M1.39382 5.63782V7.58061H0.616699V0.197998H8.05293C8.08699 0.197941 8.12046 0.206837 8.14999 0.223793C8.17952 0.240749 8.20408 0.26517 8.2212 0.294609C8.23832 0.324048 8.2474 0.357469 8.24754 0.391524C8.24767 0.425579 8.23885 0.45907 8.22195 0.48864L6.83363 2.91791L8.22195 5.34718C8.23885 5.37675 8.24767 5.41024 8.24754 5.44429C8.2474 5.47835 8.23832 5.51177 8.2212 5.54121C8.20408 5.57065 8.17952 5.59507 8.14999 5.61202C8.12046 5.62898 8.08699 5.63788 8.05293 5.63782H1.39382ZM1.39382 0.975115V4.8607H7.0489L5.9384 2.91791L7.0489 0.975115H1.39382Z" fill="#FF553E"/>
</svg>
