<svg width="8" height="8" viewBox="0 0 8 8" fill="none" xmlns="http://www.w3.org/2000/svg">
<path d="M5.95727 5.63782V5.24926H4.79159V4.08358H5.95727V4.8607H6.73438V5.63782H6.34583V6.41493H5.56871V7.19205H4.79159V6.02638H5.56871V5.63782H5.95727ZM7.90006 7.19205H6.34583V6.41493H7.12294V5.63782H7.90006V7.19205ZM0.906006 0.197998H4.01447V3.30647H0.906006V0.197998ZM1.68312 0.975115V2.52935H3.23736V0.975115H1.68312ZM4.79159 0.197998H7.90006V3.30647H4.79159V0.197998ZM5.56871 0.975115V2.52935H7.12294V0.975115H5.56871ZM0.906006 4.08358H4.01447V7.19205H0.906006V4.08358ZM1.68312 4.8607V6.41493H3.23736V4.8607H1.68312ZM6.73438 4.08358H7.90006V4.8607H6.73438V4.08358ZM2.07168 1.36367H2.8488V2.14079H2.07168V1.36367ZM2.07168 5.24926H2.8488V6.02638H2.07168V5.24926ZM5.95727 1.36367H6.73438V2.14079H5.95727V1.36367Z" fill="white"/>
</svg>
