<svg width="56" height="64" viewBox="0 0 56 64" fill="none" xmlns="http://www.w3.org/2000/svg">
<path opacity="0.2" fill-rule="evenodd" clip-rule="evenodd" d="M1.59967 18.9139C0.114263 12.4314 2.22236 5.49222 4.64619 1.07597C4.75511 0.877513 4.68253 0.628329 4.48407 0.519406C4.28561 0.410483 4.03643 0.483067 3.9275 0.681526C1.44785 5.19949 -0.745629 12.3492 0.800566 19.097C1.57588 22.4806 3.29097 25.7572 6.3699 28.5349C9.11627 31.0125 12.9328 33.0797 18.1025 34.4812C18.5855 36.9551 19.4165 39.4552 20.573 41.8796C25.7348 52.7004 37.425 62.1035 53.8568 61.0447L52.1134 63.1275C51.9681 63.3011 51.991 63.5596 52.1646 63.7049C52.3382 63.8502 52.5967 63.8273 52.742 63.6537L55.11 60.8248C55.2553 60.6512 55.2324 60.3927 55.0588 60.2474L52.2299 57.8794C52.0563 57.7341 51.7978 57.757 51.6524 57.9306C51.5071 58.1042 51.5301 58.3627 51.7037 58.508L53.76 60.2294C37.7286 61.2439 26.3456 52.0769 21.313 41.5267C20.2437 39.2851 19.4631 36.985 18.9855 34.7108C19.3256 34.7955 19.6714 34.8775 20.0229 34.9566C27.7274 36.6913 33.3686 35.7345 37.1623 33.3876C40.9582 31.0392 42.8528 27.3292 43.1082 23.6767C43.3629 20.0335 41.9865 16.4177 39.206 14.2728C36.408 12.1144 32.2698 11.506 27.1376 13.7233C21.97 15.9558 19.0035 20.2538 17.9987 25.3635C17.4902 27.9492 17.4832 30.7423 17.9429 33.5867C13.0629 32.2151 9.48586 30.2418 6.91904 27.9261C3.97417 25.2695 2.34016 22.1455 1.59967 18.9139ZM18.8139 33.8215C18.3069 30.9372 18.2935 28.1127 18.8031 25.5217C19.7629 20.6409 22.575 16.5875 27.4628 14.4758C32.3859 12.3489 36.1942 12.9848 38.7053 14.9219C41.2338 16.8724 42.5293 20.2031 42.2904 23.6196C42.0522 27.0269 40.2877 30.49 36.731 32.6904C33.1719 34.8922 27.7667 35.8598 20.203 34.1568C19.7291 34.0501 19.2662 33.9383 18.8139 33.8215Z" fill="#FF553E"/>
</svg>
