<svg width="7" height="9" viewBox="0 0 7 9" fill="none" xmlns="http://www.w3.org/2000/svg">
<path d="M0.591431 8.58063C0.591431 7.75621 0.918929 6.96556 1.50188 6.38261C2.08483 5.79966 2.87548 5.47216 3.6999 5.47216C4.52432 5.47216 5.31497 5.79966 5.89792 6.38261C6.48087 6.96556 6.80837 7.75621 6.80837 8.58063H6.03125C6.03125 7.96231 5.78563 7.36933 5.34841 6.93211C4.9112 6.4949 4.31821 6.24928 3.6999 6.24928C3.08159 6.24928 2.4886 6.4949 2.05138 6.93211C1.61417 7.36933 1.36855 7.96231 1.36855 8.58063H0.591431ZM3.6999 5.0836C2.41183 5.0836 1.36855 4.04032 1.36855 2.75225C1.36855 1.46418 2.41183 0.420898 3.6999 0.420898C4.98797 0.420898 6.03125 1.46418 6.03125 2.75225C6.03125 4.04032 4.98797 5.0836 3.6999 5.0836ZM3.6999 4.30648C4.55861 4.30648 5.25413 3.61096 5.25413 2.75225C5.25413 1.89354 4.55861 1.19802 3.6999 1.19802C2.84118 1.19802 2.14566 1.89354 2.14566 2.75225C2.14566 3.61096 2.84118 4.30648 3.6999 4.30648Z" fill="#FF553E"/>
</svg>
